<svg width="117" height="24" viewBox="0 0 117 24" fill="none" xmlns="http://www.w3.org/2000/svg">
<path d="M6.50024 14.8C6.60024 14.6 6.40024 14.4 6.20024 14.4H0.400243C0.100243 14.4 0.000243373 14.1 0.200243 13.9L11.3002 1.10004C11.5002 0.900036 11.9002 1.10004 11.8002 1.40004L9.10024 9.60004C9.00024 9.80004 9.10024 10 9.30024 10H15.1002C15.4002 10 15.5002 10.3 15.3002 10.5L4.20024 23.2C4.00024 23.4 3.60024 23.2 3.70024 22.9L6.50024 14.8Z" fill="#1389FD"/>
<path d="M33.5998 18.9C36.4998 18.9 38.5998 17.3 38.5998 14.7C38.5998 11.8 36.2998 11.1 34.0998 10.4C31.9998 9.80002 31.4998 9.30002 31.4998 8.40002C31.4998 7.60002 32.1998 7.00002 33.2998 7.00002C34.6998 7.00002 35.4998 7.70002 35.8998 8.80002L38.1998 7.50002C37.2998 5.50002 35.4998 4.40002 33.2998 4.40002C30.8998 4.40002 28.7998 5.90002 28.7998 8.60002C28.7998 11.3 30.8998 12.2 32.9998 12.8C35.0998 13.4 35.9998 13.8 35.9998 14.8C35.9998 15.6 35.3998 16.3 33.7998 16.3C32.0998 16.3 31.0998 15.5 30.5998 14.2L28.2998 15.6C28.8998 17.6 30.7998 18.9 33.5998 18.9Z" fill="black"/>
<path d="M45.6002 11.1V8.70002H43.4002V5.90002L40.9002 6.70002V8.70002H39.2002V11.2H40.9002V15.4C40.9002 18.1 42.1002 19.2 45.7002 18.8V16.5C44.2002 16.6 43.5002 16.6 43.5002 15.5V11.3H45.6002V11.1Z" fill="black"/>
<path d="M54.6001 8.70002V9.90002C53.9001 9.00002 52.8001 8.40002 51.4001 8.40002C48.8001 8.40002 46.6001 10.7 46.6001 13.7C46.6001 16.7 48.8001 19 51.4001 19C52.8001 19 53.9001 18.4 54.6001 17.5V18.7H57.1001V8.70002H54.6001ZM51.9001 16.5C50.3001 16.5 49.2001 15.4 49.2001 13.7C49.2001 12 50.4001 10.9 51.9001 10.9C53.5001 10.9 54.6001 12 54.6001 13.7C54.6001 15.4 53.5001 16.5 51.9001 16.5Z" fill="black"/>
<path d="M64.2 18.9C66.1 18.9 67.8 17.9 68.7 16.3L66.5 15C66.1 15.8 65.3 16.3 64.2 16.3C62.7 16.3 61.6 15.2 61.6 13.6C61.6 12 62.7 10.9 64.2 10.9C65.2 10.9 66.1 11.4 66.4 12.2L68.6 10.9C67.8 9.40005 66.1 8.30005 64.2 8.30005C61.2 8.30005 59 10.6 59 13.6C59 16.6 61.2 18.9 64.2 18.9Z" fill="black"/>
<path d="M79.1 18.7L75 13.6L79 8.69995H76L72.6 13.1V4.69995H70V18.7H72.5V14.2L76.1 18.7H79.1Z" fill="black"/>
<path d="M88.8 11.4C89.6 10.7 90.1 9.79995 90.1 8.59995C90.1 6.29995 88.2 4.69995 85.9 4.69995H80.5V18.7H86.4C88.8 18.7 90.7 17 90.7 14.6C90.6 13.1 89.9 12 88.8 11.4ZM85.9 7.19995C86.8 7.19995 87.4 7.89995 87.4 8.69995C87.4 9.49995 86.8 10.2 85.9 10.2H83.2V7.19995H85.9ZM86.3 16.1H83.2V12.8H86.3C87.2 12.8 87.9 13.5 87.9 14.4C87.9 15.4 87.2 16.1 86.3 16.1Z" fill="black"/>
<path d="M92.2998 18.7H94.7998V4.09998H92.2998V18.7Z" fill="black"/>
<path d="M98.3998 7.50005C99.2998 7.50005 99.9998 6.80005 99.9998 5.90005C99.9998 5.00005 99.2998 4.30005 98.3998 4.30005C97.5998 4.30005 96.7998 5.00005 96.7998 5.90005C96.7998 6.80005 97.5998 7.50005 98.3998 7.50005ZM97.1998 18.7H99.6998V8.70005H97.1998V18.7Z" fill="black"/>
<path d="M107.7 11.1V8.70002H105.5V5.90002L103 6.70002V8.70002H101.3V11.2H103V15.4C103 18.1 104.2 19.2 107.8 18.8V16.5C106.3 16.6 105.6 16.6 105.6 15.5V11.3H107.7V11.1Z" fill="black"/>
<path d="M112.5 16.2L116.7 10.3V8.69995H109.3V11.1H113.3L109.1 17V18.7H116.9V16.3H112.5V16.2Z" fill="black"/>
<style>
@media (prefers-color-scheme: dark) {
  path:not(:first-child) {
    fill: white;
  }
}
</style>
</svg>
