<svg width="220" height="59" viewBox="0 0 220 59" fill="none" xmlns="http://www.w3.org/2000/svg">
<g id="Layer_x0020_1">
<g id="_1196796112">
<path id="_1196785168" fill-rule="evenodd" clip-rule="evenodd" d="M19.2391 0H57.7169V0.000117315V38.683V38.6833H19.2391V38.683V0.000117315V0Z" fill="#CE7FFF"/>
<path id="_1196783680" d="M76.6594 0H98.0956V4.0267H89.6767V26.621H85.041V4.0267H76.6593L76.6594 0ZM109.63 15.2865C109.58 14.6153 109.438 13.9694 109.203 13.3479C108.968 12.7262 108.647 12.1858 108.239 11.7261C107.831 11.266 107.337 10.8934 106.756 10.6076C106.175 10.3213 105.526 10.1787 104.809 10.1787C104.067 10.1787 103.393 10.309 102.787 10.5702C102.182 10.8313 101.663 11.1915 101.23 11.6512C100.797 12.111 100.451 12.6518 100.191 13.2731C99.9315 13.8945 99.7896 14.5656 99.7646 15.2865L109.63 15.2865ZM99.7646 18.0828C99.7646 18.8288 99.8698 19.5492 100.08 20.2455C100.29 20.9411 100.606 21.5502 101.026 22.0725C101.446 22.5943 101.978 23.0104 102.621 23.3213C103.263 23.6322 104.03 23.7873 104.92 23.7873C106.156 23.7873 107.151 23.5204 107.905 22.9858C108.659 22.4512 109.222 21.6497 109.593 20.581H113.598C113.375 21.6251 112.992 22.5569 112.448 23.3773C111.905 24.1977 111.249 24.8873 110.483 25.4466C109.716 26.0058 108.857 26.4285 107.905 26.7144C106.954 27.0002 105.958 27.1429 104.92 27.1429C103.412 27.1429 102.077 26.8945 100.915 26.3973C99.7524 25.9001 98.7695 25.2044 97.9661 24.3096C97.1628 23.4147 96.557 22.346 96.1487 21.1028C95.7409 19.8601 95.5368 18.4932 95.5368 17.0017C95.5368 15.6343 95.7532 14.3357 96.1859 13.1053C96.6187 11.8749 97.2367 10.7939 98.0402 9.86157C98.8439 8.92974 99.8141 8.18995 100.952 7.64303C102.089 7.09646 103.374 6.823 104.809 6.823C106.317 6.823 107.671 7.13963 108.87 7.77384C110.069 8.40745 111.064 9.24637 111.855 10.2905C112.646 11.3346 113.221 12.5338 113.58 13.8883C113.938 15.2428 114.031 16.641 113.858 18.0828L99.7646 18.0828ZM130.028 13.7954C129.855 12.6019 129.378 11.701 128.6 11.092C127.821 10.483 126.838 10.1787 125.651 10.1787C125.107 10.1787 124.527 10.272 123.908 10.4583C123.29 10.6446 122.721 10.9925 122.202 11.5024C121.683 12.0119 121.25 12.72 120.904 13.6276C120.558 14.5347 120.385 15.7216 120.385 17.188C120.385 17.9833 120.478 18.7791 120.663 19.5743C120.849 20.3696 121.145 21.0782 121.553 21.6995C121.961 22.3209 122.487 22.8242 123.13 23.2096C123.772 23.5948 124.551 23.7873 125.466 23.7873C126.702 23.7873 127.722 23.402 128.526 22.6318C129.329 21.8611 129.83 20.7801 130.028 19.388H134.255C133.86 21.8986 132.914 23.8185 131.418 25.1484C129.923 26.4779 127.938 27.1429 125.466 27.1429C123.958 27.1429 122.629 26.8883 121.479 26.3788C120.329 25.8693 119.359 25.1732 118.568 24.2906C117.776 23.4086 117.177 22.3583 116.769 21.1403C116.361 19.9222 116.157 18.6051 116.157 17.188C116.157 15.7462 116.355 14.3916 116.751 13.1243C117.146 11.8564 117.74 10.7565 118.531 9.82466C119.322 8.89236 120.305 8.15914 121.479 7.62454C122.654 7.09041 124.032 6.82304 125.614 6.82304C126.727 6.82304 127.784 6.96582 128.785 7.25159C129.786 7.53784 130.676 7.96628 131.455 8.5383C132.234 9.10986 132.871 9.83075 133.365 10.7005C133.86 11.5707 134.157 12.602 134.255 13.7954L130.028 13.7954ZM137.705 5.95688e-06H141.932V9.88047H142.006C142.526 9.01035 143.299 8.28335 144.325 7.699C145.351 7.11501 146.494 6.82301 147.755 6.82301C149.857 6.82301 151.513 7.36994 152.725 8.46343C153.936 9.55727 154.542 11.1977 154.542 13.3849V26.6211H150.314V14.5035C150.265 12.9873 149.943 11.8873 149.35 11.2038C148.756 10.5204 147.829 10.1787 146.568 10.1787C145.851 10.1787 145.208 10.309 144.64 10.5702C144.071 10.8313 143.589 11.1915 143.194 11.6512C142.798 12.111 142.489 12.6518 142.266 13.2731C142.044 13.8945 141.932 14.5533 141.932 15.2495V26.6211H137.705V5.95688e-06ZM173.864 18.0458C173.864 19.2137 173.765 20.345 173.567 21.4383C173.37 22.5323 172.968 23.5139 172.362 24.384C171.756 25.2541 170.879 25.9499 169.729 26.4717C168.579 26.994 167.052 27.2547 165.149 27.2547C163.739 27.2547 162.54 27.0372 161.551 26.6025C160.562 26.1675 159.747 25.5707 159.104 24.8129C158.461 24.0546 157.991 23.1536 157.694 22.1095C157.397 21.0659 157.249 19.9345 157.249 18.7169V17.2998H161.885V18.6794C161.885 20.1956 162.139 21.3702 162.645 22.2029C163.152 23.0356 164.11 23.4517 165.519 23.4517C166.261 23.4517 166.873 23.3399 167.355 23.1162C167.837 22.8925 168.221 22.563 168.505 22.1284C168.789 21.6934 168.981 21.1526 169.08 20.5066C169.179 19.8601 169.228 19.1269 169.228 18.3065V8.93532e-06H173.864L173.864 18.0458ZM187.697 27.1429C186.165 27.1429 184.798 26.8883 183.599 26.3788C182.4 25.8693 181.386 25.1669 180.558 24.2722C179.73 23.3773 179.099 22.3086 178.667 21.0659C178.234 19.8227 178.018 18.4557 178.018 16.9643C178.018 15.4979 178.234 14.1433 178.667 12.9005C179.099 11.6575 179.73 10.5886 180.558 9.69386C181.386 8.79898 182.4 8.09709 183.599 7.58712C184.798 7.07763 186.165 6.82305 187.697 6.82305C189.23 6.82305 190.596 7.07763 191.795 7.58712C192.994 8.09709 194.008 8.79899 194.836 9.69386C195.664 10.5886 196.295 11.6575 196.728 12.9005C197.16 14.1433 197.377 15.4979 197.377 16.9643C197.377 18.4557 197.16 19.8227 196.728 21.0659C196.295 22.3086 195.664 23.3773 194.836 24.2722C194.008 25.1669 192.994 25.8693 191.795 26.3788C190.596 26.8883 189.23 27.1429 187.697 27.1429ZM187.697 23.7873C188.637 23.7873 189.453 23.5887 190.145 23.191C190.837 22.7934 191.406 22.2712 191.851 21.6251C192.296 20.9787 192.624 20.2516 192.833 19.444C193.044 18.6359 193.149 17.8093 193.149 16.9643C193.149 16.1443 193.044 15.3239 192.833 14.5035C192.624 13.6835 192.296 12.9565 191.851 12.3224C191.406 11.6887 190.837 11.1731 190.145 10.7754C189.453 10.3773 188.637 10.1787 187.697 10.1787C186.758 10.1787 185.942 10.3773 185.249 10.7754C184.557 11.1731 183.988 11.6887 183.543 12.3224C183.098 12.9565 182.771 13.6835 182.561 14.5035C182.351 15.3239 182.245 16.1443 182.245 16.9643C182.245 17.8093 182.351 18.6359 182.561 19.444C182.771 20.2516 183.098 20.9787 183.543 21.6251C183.988 22.2712 184.557 22.7934 185.249 23.191C185.942 23.5887 186.758 23.7873 187.697 23.7873ZM201.012 3.57413e-05H205.239V9.84309H205.313C205.61 9.37067 205.969 8.94833 206.389 8.57527C206.809 8.2028 207.273 7.88569 207.78 7.62455C208.287 7.36341 208.818 7.1648 209.374 7.02789C209.931 6.89134 210.481 6.82306 211.025 6.82306C212.533 6.82306 213.85 7.09042 214.975 7.62456C216.099 8.15916 217.033 8.89238 217.775 9.82467C218.516 10.7565 219.073 11.8441 219.444 13.0868C219.814 14.3296 220 15.6594 220 17.0761C220 18.3686 219.833 19.6241 219.499 20.8422C219.166 22.0598 218.658 23.1351 217.979 24.0669C217.299 24.9992 216.439 25.7448 215.401 26.304C214.363 26.8632 213.139 27.1429 211.73 27.1429C211.087 27.1429 210.438 27.0997 209.783 27.0126C209.127 26.9254 208.503 26.7576 207.91 26.5092C207.316 26.2608 206.779 25.9376 206.296 25.5399C205.814 25.1423 205.412 24.6201 205.091 23.974H205.017V26.6211H201.012L201.012 3.57413e-05ZM215.772 17.0017C215.772 16.1315 215.66 15.2865 215.438 14.4666C215.216 13.6461 214.882 12.9191 214.437 12.2853C213.992 11.6513 213.435 11.1418 212.768 10.7565C212.1 10.3711 211.334 10.1787 210.469 10.1787C208.688 10.1787 207.347 10.8 206.445 12.0427C205.542 13.2854 205.091 14.9386 205.091 17.0017C205.091 17.971 205.209 18.872 205.443 19.7047C205.678 20.5374 206.03 21.2522 206.5 21.8488C206.97 22.445 207.532 22.9176 208.188 23.2655C208.843 23.6134 209.603 23.7873 210.469 23.7873C211.433 23.7873 212.249 23.5887 212.916 23.191C213.584 22.7935 214.134 22.2773 214.567 21.6437C214.999 21.0099 215.308 20.289 215.494 19.481C215.679 18.6734 215.772 17.8468 215.772 17.0017ZM86.2651 31.5902H91.1978L101.396 58.2111H96.427L93.942 51.1643H83.3724L80.8874 58.2111H76.1033L86.2651 31.5902ZM84.6335 47.6225H92.7182L88.75 36.1761H88.6388L84.6335 47.6225ZM106.514 52.0218C106.638 53.265 107.108 54.1347 107.924 54.6318C108.74 55.129 109.716 55.3774 110.853 55.3774C111.249 55.3774 111.701 55.3465 112.207 55.2845C112.714 55.2224 113.19 55.1039 113.635 54.9299C114.08 54.7561 114.445 54.5015 114.729 54.166C115.013 53.8303 115.143 53.3891 115.118 52.8422C115.094 52.2953 114.896 51.8478 114.525 51.5C114.154 51.152 113.678 50.8725 113.097 50.6611C112.516 50.4497 111.855 50.2696 111.113 50.1203C110.372 49.9715 109.617 49.8098 108.851 49.6359C108.06 49.4615 107.3 49.2506 106.57 49.0018C105.841 48.7534 105.185 48.4178 104.605 47.9951C104.024 47.5728 103.56 47.0321 103.214 46.3732C102.868 45.7144 102.695 44.9007 102.695 43.9314C102.695 42.8873 102.948 42.011 103.455 41.3029C103.961 40.5943 104.605 40.0227 105.383 39.5876C106.162 39.1525 107.028 38.8482 107.979 38.6739C108.931 38.4999 109.84 38.4132 110.705 38.4132C111.694 38.4132 112.64 38.5189 113.542 38.7298C114.445 38.9412 115.261 39.2828 115.99 39.7554C116.719 40.2275 117.325 40.8427 117.807 41.601C118.289 42.3588 118.593 43.2726 118.716 44.3413H114.302C114.105 43.3223 113.642 42.6385 112.912 42.2906C112.182 41.9427 111.348 41.7687 110.408 41.7687C110.112 41.7687 109.76 41.7934 109.351 41.8432C108.944 41.893 108.56 41.9862 108.202 42.1228C107.843 42.2598 107.541 42.4583 107.293 42.7195C107.046 42.9806 106.923 43.3223 106.923 43.7447C106.923 44.267 107.102 44.6893 107.46 45.0125C107.819 45.3357 108.288 45.6026 108.87 45.814C109.45 46.0254 110.112 46.2055 110.853 46.3547C111.595 46.504 112.362 46.6652 113.153 46.8396C113.92 47.0135 114.673 47.2245 115.415 47.4733C116.157 47.7216 116.818 48.0572 117.399 48.48C117.981 48.9023 118.45 49.4369 118.809 50.0833C119.167 50.7294 119.346 51.5246 119.346 52.4693C119.346 53.6128 119.087 54.5821 118.568 55.3774C118.049 56.1731 117.375 56.8192 116.546 57.3163C115.718 57.8135 114.797 58.1737 113.783 58.3974C112.77 58.6211 111.768 58.7329 110.779 58.7329C109.568 58.7329 108.449 58.5965 107.423 58.323C106.397 58.0496 105.507 57.6333 104.753 57.0741C103.999 56.5149 103.405 55.8186 102.973 54.9859C102.54 54.1532 102.311 53.1654 102.286 52.0218L106.514 52.0218ZM122.684 31.5902H126.912V35.6169H122.684V31.5902ZM122.684 38.935H126.912V58.2111H122.684V38.935ZM147.569 53.9232C147.569 54.4455 147.637 54.8181 147.773 55.0418C147.909 55.2656 148.175 55.3774 148.571 55.3774C148.694 55.3774 148.843 55.3774 149.016 55.3774C149.189 55.3774 149.387 55.3527 149.609 55.303V58.2485C149.461 58.2984 149.269 58.3542 149.034 58.4164C148.799 58.4785 148.558 58.5344 148.311 58.5842C148.064 58.6339 147.816 58.6709 147.569 58.696C147.322 58.7206 147.112 58.7329 146.939 58.7329C146.073 58.7329 145.357 58.5591 144.788 58.2111C144.219 57.8633 143.848 57.2542 143.675 56.384C142.835 57.2044 141.802 57.8012 140.578 58.1737C139.355 58.5467 138.174 58.7329 137.037 58.7329C136.171 58.7329 135.343 58.6149 134.552 58.3789C133.761 58.1428 133.062 57.795 132.457 57.3348C131.851 56.8751 131.369 56.2911 131.01 55.5825C130.652 54.8741 130.472 54.048 130.472 53.1033C130.472 51.9099 130.689 50.9406 131.121 50.1951C131.554 49.4492 132.123 48.8652 132.828 48.4425C133.532 48.0202 134.323 47.7154 135.201 47.5291C136.079 47.3429 136.963 47.1998 137.853 47.1002C138.619 46.9515 139.349 46.8458 140.041 46.7836C140.733 46.7211 141.345 46.6158 141.876 46.4666C142.408 46.3173 142.829 46.0874 143.137 45.7769C143.447 45.466 143.601 45.0002 143.601 44.3788C143.601 43.8318 143.471 43.3844 143.211 43.0366C142.952 42.6883 142.631 42.4214 142.247 42.2347C141.864 42.0484 141.438 41.9242 140.968 41.8621C140.498 41.7996 140.053 41.7687 139.633 41.7687C138.446 41.7687 137.469 42.0171 136.703 42.5143C135.937 43.0115 135.504 43.7821 135.405 44.8262H131.177C131.251 43.583 131.548 42.5517 132.067 41.7313C132.586 40.9114 133.248 40.2526 134.051 39.7554C134.855 39.2582 135.764 38.9104 136.777 38.7113C137.791 38.5127 138.829 38.4132 139.893 38.4132C140.832 38.4132 141.759 38.5127 142.674 38.7113C143.589 38.9104 144.411 39.2331 145.14 39.681C145.869 40.1285 146.457 40.7061 146.902 41.4147C147.347 42.1228 147.569 42.9868 147.569 44.0058L147.569 53.9232ZM143.342 48.5543C142.699 48.9771 141.907 49.2316 140.968 49.3189C140.028 49.4056 139.089 49.5364 138.149 49.7104C137.704 49.7847 137.272 49.8904 136.851 50.0273C136.431 50.1639 136.06 50.3502 135.739 50.5866C135.417 50.8226 135.164 51.1332 134.978 51.5184C134.793 51.9038 134.7 52.3701 134.7 52.9166C134.7 53.3891 134.836 53.7868 135.108 54.11C135.38 54.4327 135.708 54.6878 136.091 54.8741C136.474 55.0607 136.895 55.1911 137.352 55.2656C137.809 55.3404 138.224 55.3774 138.594 55.3774C139.064 55.3774 139.571 55.3153 140.115 55.1911C140.659 55.067 141.172 54.8556 141.654 54.5575C142.136 54.2589 142.538 53.8802 142.859 53.42C143.181 52.9602 143.342 52.3948 143.342 51.7237V48.5543Z" fill="#030303"/>
<path id="_1196786128" fill-rule="evenodd" clip-rule="evenodd" d="M38.4781 58.0249L19.2392 58.025V38.6835H0.000366211V19.3419C12.8262 19.3419 25.6522 19.3418 38.4781 19.3418C38.4781 32.2361 38.4781 45.1305 38.4781 58.0249Z" fill="#3CD9D4"/>
<path id="_1196796352" fill-rule="evenodd" clip-rule="evenodd" d="M38.4782 38.6835H19.2393V19.3418H38.4782C38.4782 25.789 38.4782 32.2363 38.4782 38.6835Z" fill="#030303"/>
</g>
</g>
<style>
@media (prefers-color-scheme: dark) {
  path:nth-child(2) {
    fill: #FEFEFE;
  }
  path:nth-child(4) {
    fill: white;
  }
}
</style>
</svg>
